<mxfile host="Electron" agent="Mozilla/5.0 (X11; Linux x86_64) AppleWebKit/537.36 (KHTML, like Gecko) draw.io/24.7.17 Chrome/128.0.6613.36 Electron/32.0.1 Safari/537.36" version="24.7.17">
  <diagram id="l8hXMBHkgcEJcSW0mbfh" name="Page-1">
    <mxGraphModel dx="717" dy="478" grid="1" gridSize="10" guides="1" tooltips="1" connect="1" arrows="1" fold="1" page="1" pageScale="1" pageWidth="1169" pageHeight="827" math="0" shadow="0">
      <root>
        <mxCell id="0" />
        <mxCell id="1" parent="0" />
        <mxCell id="8--HhbSZYtI3ddgJnD71-23" style="edgeStyle=none;rounded=0;orthogonalLoop=1;jettySize=auto;html=1;sourcePerimeterSpacing=5;endArrow=classic;endFill=1;targetPerimeterSpacing=5;startArrow=none;startFill=0;strokeWidth=4;fillColor=#d5e8d4;strokeColor=#82b366;" parent="1" source="W0xqIHwrMlYqFA7ODgHm-1" edge="1">
          <mxGeometry relative="1" as="geometry">
            <mxPoint x="405" y="115" as="targetPoint" />
          </mxGeometry>
        </mxCell>
        <mxCell id="W0xqIHwrMlYqFA7ODgHm-6" value="&lt;font style=&quot;font-size: 12px;&quot;&gt;&lt;b&gt;T 1&lt;/b&gt;&lt;/font&gt;" style="edgeLabel;html=1;align=center;verticalAlign=middle;resizable=0;points=[];" parent="8--HhbSZYtI3ddgJnD71-23" vertex="1" connectable="0">
          <mxGeometry x="-0.0435" relative="1" as="geometry">
            <mxPoint as="offset" />
          </mxGeometry>
        </mxCell>
        <mxCell id="W0xqIHwrMlYqFA7ODgHm-1" value="&lt;b&gt;Voucher Creator&lt;/b&gt;" style="image;aspect=fixed;html=1;points=[];align=center;fontSize=12;image=img/lib/azure2/identity/Users.svg;fillOpacity=100;" parent="1" vertex="1">
          <mxGeometry x="240" y="80" width="64" height="70" as="geometry" />
        </mxCell>
        <mxCell id="W0xqIHwrMlYqFA7ODgHm-7" value="" style="image;aspect=fixed;html=1;points=[];align=center;fontSize=12;image=img/lib/azure2/identity/Users.svg;fillOpacity=100;" parent="1" vertex="1">
          <mxGeometry x="570" y="80" width="64" height="70" as="geometry" />
        </mxCell>
        <mxCell id="W0xqIHwrMlYqFA7ODgHm-11" style="edgeStyle=none;rounded=0;orthogonalLoop=1;jettySize=auto;html=1;sourcePerimeterSpacing=5;endArrow=classic;endFill=1;targetPerimeterSpacing=5;startArrow=none;startFill=0;strokeWidth=4;fillColor=#d5e8d4;strokeColor=#82b366;" parent="1" target="W0xqIHwrMlYqFA7ODgHm-7" edge="1">
          <mxGeometry relative="1" as="geometry">
            <mxPoint x="479" y="115" as="sourcePoint" />
            <mxPoint x="596" y="360" as="targetPoint" />
          </mxGeometry>
        </mxCell>
        <mxCell id="W0xqIHwrMlYqFA7ODgHm-24" value="&lt;font style=&quot;font-size: 12px;&quot;&gt;&lt;b&gt;T 2&amp;nbsp;&lt;/b&gt;&lt;/font&gt;" style="edgeLabel;html=1;align=center;verticalAlign=middle;resizable=0;points=[];" parent="W0xqIHwrMlYqFA7ODgHm-11" vertex="1" connectable="0">
          <mxGeometry x="-0.0423" relative="1" as="geometry">
            <mxPoint as="offset" />
          </mxGeometry>
        </mxCell>
        <mxCell id="W0xqIHwrMlYqFA7ODgHm-13" value="" style="image;aspect=fixed;html=1;points=[];align=center;fontSize=12;image=img/lib/azure2/identity/Users.svg;fillOpacity=100;" parent="1" vertex="1">
          <mxGeometry x="570" y="230" width="64" height="70" as="geometry" />
        </mxCell>
        <mxCell id="W0xqIHwrMlYqFA7ODgHm-15" value="&lt;b&gt;Fraud T3 detected!&lt;/b&gt;" style="image;aspect=fixed;html=1;points=[];align=center;fontSize=12;image=img/lib/azure2/identity/Users.svg;fillOpacity=100;" parent="1" vertex="1">
          <mxGeometry x="730" y="230" width="64" height="70" as="geometry" />
        </mxCell>
        <mxCell id="W0xqIHwrMlYqFA7ODgHm-33" value="" style="image;aspect=fixed;html=1;points=[];align=center;fontSize=12;image=img/lib/azure2/app_services/App_Service_Certificates.svg;" parent="1" vertex="1">
          <mxGeometry x="304" y="122" width="30.63" height="28" as="geometry" />
        </mxCell>
        <mxCell id="Au2JnG_nZNp0HyXFQwV6-2" value="" style="shape=image;aspect=fixed;image=data:image/png,iVBORw0KGgoAAAANSUhEUgAAAQAAAAEYCAYAAACz9yiQAAABhWlDQ1BJQ0MgcHJvZmlsZQAAKJF9kTtIw1AUhv+man1UHOwg4pChOlkQFXHUKhShQqgVWnUwuelDaNKQpLg4Cq4FBx+LVQcXZ10dXAVB8AHiLjgpukiJ5yaFFjEeuNyP/57/595zAaFWYprVNgZoum2mEnExk10RQ68IoANd6IEoM8uYlaQkfOvrnrqp7mI8y7/vz+pVcxYDAiLxDDNMm3ideGrTNjjvE0dYUVaJz4lHTbog8SPXFY/fOBdcFnhmxEyn5ogjxGKhhZUWZkVTI54kjqqaTvlCxmOV8xZnrVRhjXvyF4Zz+vIS12kNIYEFLEKCCAUVbKAEGzHadVIspOg87uMfdP0SuRRybYCRYx5laJBdP/gf/J6tlZ8Y95LCcaD9xXE+hoHQLlCvOs73sePUT4DgM3ClN/3lGjD9SXq1qUWPgL5t4OK6qSl7wOUOMPBkyKbsSkFaQj4PvJ/RN2WB/luge9WbW+Mcpw9AmmaVvAEODoGRAmWv+by7s3Vu//Y05vcDCfdyfd38v1kAAAAGYktHRAD/AP8A/6C9p5MAAAAJcEhZcwAALiMAAC4jAXilP3YAAAAHdElNRQfpAQYJEBHKN5+qAAAAGXRFWHRDb21tZW50AENyZWF0ZWQgd2l0aCBHSU1QV4EOFwAAIABJREFUeNrtfXuYVNWV72/vU2A33Y2akURRpJxETD58xDgxwWgoxkCMMNeQjHKZi6HJGPP4NCQQZYCGfvAwiePndS4TZ0wmjbneEA1qEkW9EewG5SE+QB6CRKEAgyYi0E13F03X2Wv+qKruqupTVaeqzjl1Huv3ffXtXr2765yz9t5r/dbajyPA8BViixefDyk/DilHAxgFIUYCOBfAR0F0NoCzAdQAqIEQIRAJADqE6AHQA6ADwHEAH4Dor1DqCDTtMIQ4BCH209Gj+4fdf3+cNe0PCFaBd3Fq+fIwKXU5iC4HMBZCfBJEnwRQZeNl34aUb0Gp3ZByF4h2Vjc0bOfWYAPAsHvA/+Qnf0O9veMg5eeg1OcgxFUAPlLh21Igeh1CbAXwMk6f3lK9ZMk+bi02AAyrKP0ZZ0Sg1HgA1wL4lMtv+a8QYiOINkCIdmYHbAAYxQ76pUvPANEkAJNANBFCXJLzj4kAkacZK1t/HETPA3geUv6xuqHhELcuGwBGLor/4x+Pob6+yQAmA7jeXz1N7ALwLOLxNdVNTeu5tdkAMFIef9myq6HUVBB9FUJ80tcPS9QBKX8PKZ+sXrDgd9z6bACC7PGvob6+myHE10E0KmCPryDl49D11dWLFz/GvYENQJBi/E+DaDqA6SAalRFDZ8fUfpcBAvAbAKuqFy16insHGwD/evx77hlJ8fitIJoBIS5ljWTkCDpA9P+gaf+3esGCLawQNgD+8votLdMgxCwAX2Zt5MVeACvR19da3dLyV1YHGwCve/1Lqa/vWxDiNgDDWCOm8QcAv+CwgA2Al73+rQC+CyHG5fwjd8/jV7r+fRD9B+LxB5kNsAHwzsBftmw0lPoegO8BqGWNlAkpV4PoZ9UNDW2sDDYA7h78S5ZMADAbwE2sDQtBtAtC/Fv1okU/Z2WwAXDn4F+6dBaIfgDgctaGLUwgBl2/H6dO3V+9fPlRVggbALfE+kMB/Cj5OTvQ8/rOyA9DiHurGxp2c+9jA1DpeP9cCHE3dP2HrA0ne65YAyF+Wr1w4QZWBhuAygz+hoaLMXTo/OT8PsP5vMBmAMurFy9+mpXBBsBRnLrnnktJ1xtANI21UdG8wHYAy6oXLlzNymAD4IznX7LkChA1QoipPI/vivq9AJqrFy36DfdONgD2Dv7m5ssgZROAr7E2XBUO7IWUjdUNDbyzsBgCxSooYvAvW3YxNK2BB78bXZn4JIDFsebmr7Iy2ABYP/iXLz8PSi0A0S2sDdeygLEIhebHli37EiuDDYBl6Pn+96ug1DwA9SAaHIOy7B5Z16+GUvNjzc1/xz2XDYA17HLEiB+BaHaSamZTT5bdJ/89NO1HsWXLLuTeywagPOq/dOk3QfQj1oTnwoFpIJrTt2GDxspgA1ASTi1fPhHAHAhxJmvDk0Zgdry9/QesCDYApQz+MOn696HU2AKdDFzv4npgNs8MsAEowXnQHQCm5F2EYhSDcr3b6kdB0+6ItbR8ins1GwCzcf8s6PqdrAnfWPPrIeV3WBFsAAoP/sbGKyHEtyHEUNaGr4zAd2ItLd9kRbABKKAR+S0o9bmcMSbL3pAHl0MhxO2x5ubLuJOzATD2/i0tt0LK2/LGmCy7W86PzwFgFsAGwDDuvzC5r38Ia8NRaj64LOeT/V1KZZZCfDPW0jKVFc8GINuTfAPABFaE79o1syQaDiFmxhYvPouVwwYg4f2XLbsauj4zr4cq5MH8Um+1R8710XVjD62U/Z94/CYo9b+457MBSECp6RDiE3k9SCEP49d6uz2zGa9dqCzlWTRtemzZstFB7/qhwHv/5uYIiP6pYgPBihhaiMzSyrhcKUDKzNLKezdiAUYMJBc7McN2sr8joacvIB6fBuCnzAACbQJDt0CIjzINKsIbp39K8dhWeHArGIdS02ILF36CGUBwvf8Xoeu3WHJufb7S2nDFPo9cKqMo5KGzvbnR96czgEJ/X8z95f/7z0CIqQDuZQYQyKeXUyHE3+T1FNbOQ9vj0dzoca3KOZh5pnyfwv87NTZ//nnMAILn/S8D8FVLPXSumNlqj536jlzxsRUxcyGPXQwDyue5lbKfQeXPMYyDpv0DgIeYAQQrtv0HAGFHYmYjj11ODF1p9lGsh7bTg1ujr//R+8gjgRwLgWQAsYaGs6DUlIrF0ObXr5vzyEYevlhPbOY57MhpFKOvUsoU80pfYzD4uSarvXtvAPAMM4AgYOjQL0OIcZ6Moc3G1d7ywM7pJtezxeM3cAgQFCg1qd8bGK1SM1qdlp2lNpLNxuPFXCvXtdP/P/1ZrFotV+w9lKuvQjrM9R3l6CuVH0j8/OXYggUXsgHwP/2/GFJezzE03D9Pb9ajl6qvTHkMdD1w7xMIXg4gFIpA10dbMu9sNivudMxcTgyd/f3Zsxdmsvbe1dcEAL9kBuBnEEXK9sjpHiRfXOmXmNkqhmLEWNylr0hs3ryPMwPwK/1fuHA0iL7Y7+lSnq1cD5T9P+ne0k/z9Fbpa3BOxv69AMmSiCCEGChTz5PABVDqCwDeYQbgT/o/DkQX+NqD25ljcL8HL0k/qasKAELTxjED8Ct0/fOGnk7XS4+ZzcTQpXrgfDG0T+bpSSkIKRMeWamEnPTQlujLQP+UXaYeI1GM654+/YyaVat6mQH4D5+tiAcu11v63APn0pewQl/Ft8EV4vzzPxuUAREYBhBbtGgslPqsIzF0+jWMYmgrvbNT++nNxdAl6YtS353UV79ntmvvRC59pX6W8jMAXmIG4CfE41eilAM/nYqhvbo3wO5Zg2Ke3yoodSUzAP/hsrSTYd05T28ips6ImZMeWEiZKIEBj1zuXoA8z5MVM1c+x1DI+xfanTlYL1cEZVAEKQdwqR88rpCJJhN2eNxSVxK6GaXp5dKeO+8cwwzAJ+iePv0MEI3NiMvzxcd2xsxECU9dTo4ha54+O6vt+Dy9FSwgV07GghxDxj3mY0gDGAJNGwNgHzMAPzzkhRdeDGC02zxYyVnufB7cLo/tltOD7cwpZBolZgD+sQDyopT3MspiWzbvnCO2LTDvbH0MnVrXkCrL8dbp++lLXdeQPvBKmWWxOkeTzWiy14Ek/u7jbAD8AqJwhtfN9ihJDyCAxCAtJy+Q/d1Od3AnPHAp5xHm+j636keIMBsA/xiAURnZ8VR8nh1DV2qe3u0xdPo17NoLYJRryJ61sbJdCusrEC8NCUQOgJQ639Xzzm6PobO/x8v6MK+vkbH584cxA/ADlDov7eWQ9s4759tPn3ve2a5z753JMZTr/YufpzefYyhdX2erDz4YAeAgMwDv4xzPetxSVg560eO6cOWgqKo6x+8DIyg5gHMcjZntPvfe6PwBo5jZjncF2rHbsfh5evP3m6vMt6tyAL5/hbjvGUDfhg0ahBjuqpjZDo9d6Xl6K/RTydyI8d8M9/v48D0DiD//fBWUqjEVCzo972x3DO2VeXozpyiXm8PIp6/cBsD3SUDfMwDq6qoqeo07x9De1Udpnj7X31YxA/B6+1dVCYrFcnvPfPPOTsbQ5eQcCsXQ5dyvGQ9t5zy9ne9WLLwuQ2MG4H0G4G43Vm7OwU2e2m/rAoQfFzoEjAEMsupWzNPni5nN5BqsfjYz7wq0I8fg1LsVrcyZFKMvZfXDMQNwfuzHYqct9bh+XznISDcWp5kBeN7EyV4QxUEUsm2e3rp5Z2/EzE6s1XdKX8nvzThZaaA8xQzA46h56KFTAE5W3BtX8vpeZCRO3WtqJ6gcPBRIqZPMAPwApY4BODunByj0O7tiaLtiZqM35Fr1PHbP02c9j5FntjvnQAP662QG4A8cDbSX85KndxFbEUOHHvW7+oPCAP6St0NVKoa2wys7PE+fI3a21GOnvoOcWqeR+DlOHR0fMgPwxVPK99jVMuMoEu/VrFr1ATMAP0DX3y0qhq7UvLMXYmaD66Y8c3+Z1Bu5QX+FVlLmZnyHAuEbA2EAiNx1qIOVp/PymgNz+ip+jcbBIKgnKCsBo0XFgE7EmGnxredi5vTnypdzsOJ66es17JpNyc7RJIzDfmYA/skBvA2ibo7DPezBpcNdVdffZgbgEwx78MH3er7znd0gurpQjFjJeWdLYmaj62R7aAtzDhXZG5DvPH8rvj/BBvYFYWwE592ARG+aihH95jmt/p5g5Bz+jNOn9zAD8NP4V2qna2LoQnsErIQTu/mMYmgv6St7HYgQO2oee+wEMwB/4Y3AeW9GqfrfHpRHDQwDgK5vh6YdANFFRceEpcw7VypmNrqunWcSVm6e3r4cQzy+LSjDIjAMoOaXv/wQRK867r3NxMwySESsQA6m8vo6CilfDYr6Q4HqbLq+FVLebCoeTI8Jndob4OV5+nzz9W7XV2YOYEvNr399gBmAL81daDPH3zZ7cO9jc6CGRKAedvz4zfF1614CcG1RMaGV885G1zHypOXEsH6ap3f6TEIpNwVpTASKAZwxY4YC0QZXec5KxNCMXLp8Se3f/yIzAD+DqB3AAtMxIc/TFxtDe/dMQqXa6jZt0oM0HAKXfg5NnLgOQLsrvDfDTawqDinXBU5lQewn3d/4xnwIsdwwhq3EPL2d7w2oRA7AKT1ZeT2iNTWPPjolaGMhqBPQf4RSR03HzEGepw8KQxLi/wexqQLZs2t+9avXADwNpTDoky/mTM8LlPtJj5mzy+x7KOdj9DxGeY5yn8Pou+z4/nz6Kv2zj3p72QAEDE+zq2Ykvf/TtU8+uS+Ijx4KbKPH409DymchxFdMx852xdBOr9VP98x25Bhs1BcRQSiVUZapp+NQ6g9BHQaBZQA1q1b1Avgdx/2Bx+9qV69eH9SHDwW66ZV6EkJMBxApykM78K46r87TG3loIURGaQUL6C/L09cpAE8EeQgE2s3VrFr1AaT8LTvBwOKx2tWrA50LCgW+C1RVPYaurqkQ4ks5Y2cjL53+O6tjaKtj5mwPbHOOgZK/7y/TPXYpOYvsdRpWMCSiDgjxaNC7f+AD3Zpf/OIogFVBembh5nl6p/YyCLGq9oknngl6/2cGAIA6OlaJM8+8AcDNhvG/g2v1nYiZyYjhWJFfyGY0VuUycu2YLD0HEIUQv+aezwwAAFD77LMxCPErAMdYGzZ481xy5fBw7RNPvMgNFNC9ALnQfcst/wpgbsEY2tog3do17vn2Njix96ASexuKuZ4QbRgy5J9rf/vbA9zjmQFkoxXAFl95XXd6YGdyBIMZSB+IWnnwMwPIia5//MdvCin/g4iGOOLh7Mpyl8I4/L8bcUXtH/5wJ/dyZgC58wGrV/+SlHrIM17OD1481/Na+fxCbEKl29WF4FkAY6/yn1DqMkj5xYp4ZC+fqWf0PNnrDvJl9bO/y8z3F16X0QmiB2uffnond25mAIVZwOOP74SUK6DUXwMdM/uHcayofeqpR7hnswEoJhT4LYAHBnkou/fTG+1zz/59MZ9ce+iNzjlIyVafD2C3vlJ6SpWZn8eos3MF92g2AMWjr+/fAPzcdR7brpjZLwxgQD9bATxQ197+HnfmHKpiFeRH1003fQpC3AuiyTnnn62Omf02T2/3/Rs/zyEQ3VX77LOPcS9mBlB6KPD73+8B0X2m3hfHpwU7y1hyX68XQvwrD35mANYxgalTvw5dvwfAxTxP7yLGYfz9TbXPPtvMvZYZgHVM4MknH4cQ90CI9wPnsZ324OXhPoRC93CPZQZgDxOYPPl70LRmEJ1jmwf2n0e27v/zM6MVGDq0sfapp3hTFzMAm5jAmjU/A9ACIY6zNlzESIR4EJrWwoOfGYAzTODGG++AEA0APuZYDsAOVMJjW33/wL9DyqW1zz33PvdMZgDOMIFnnlkBKRcBOORYzOyFk3zMeGwr9SXEfRSPL+LBzwygMkxgypTpUOpfAFzOHhmOzWKQUqeElD8B8JPaP/4xxj2RDUDljMDkyV8B0d3Id7x4JQ1AoZef5rqeHde3xgAcIV3/ad26dQ9w72MD4JacwFUA5oDonywdIB5fGUhKQUiZtyzSAG0FcH/d2rW/4V7HBsBdRuArXzkXwA8AzAZQVdQAzDUgzXjscjy43QbA4Ei1Mo5YexxE/7tu7dqXuLexAXCzIfgWlLoTwGVe8MhlUX5nQoBuACtEVdX/qV2z5s/cw9gAuN8ITJx4HaT8HoD/6SoDUKwHNjOgzTKW0hY2bQXws7p16x7mXsUGwFtGYNKkj6Cq6m7E47cjHj/bMo9td9LO7hyDuevpAH4B4KG6F154nXuTPeAjwWzAqeXLwxSP10OIRgAQmgZ93z7QkSMlmOgy584L5RiKGaB2LkhKf4S6ul4xYsSrMhzeIqQ8hhde4E7FDMBbgz59wIm6OoQmTUL8qacQf+010PHjXvTIpSHf3oas64mqKsiLL4Z29dVQ0Wjq11Ek3uTzcHVDw0ruaWwA3D/oDTBk8mSIc8+F2r8f8eeeg/7GG6BTp8zF0FZ6YDceQCIE5KhRGDJ5MrRrr4X+4ovQ9+0z+rsoiNqh1MPVjY3t3APZALh60KdDnnceQjfeOOAYd+1CfO1a6Lt2gXp7K8cIzOxGtCIkyGFw5PnnIzRpEkITJ/b/6en/+i8zoVEUSj0sQqGVVQsWRLlnsgGwFbGWliZIORNE4ZIUXVuLIdOmDR5/O3ei77nnoPbtSzACr4cEuXIO6QZF0yBHjoR21VWDdKL27UP8xSJe25dgBRwisAGwydv39dVDysaCHdyErF15JbTPfMbYEe/di/gLL0DfsQPU1eWGM/Usv56oroY477zEwP/61w3/PL5mDdT775ekXwgRha4/XN3Y2MS9lw2A4zS/VBaQMV7efx/xF1+Evm0b6MgRUF9f+QPa3nn6gvcnRoyANnYsQhMmQF5ySd5n71uzxgJFJ8KD6sWL2RCwAaj8wE9HKhloKjzftQvxl16CevvthFdMP8ffLYwgh0cWZ50FOWYMtCuuQGj8eCBUeMY5Z/KPDQEbANsHvq43Aqi3+1ramDHQrruu6P9TO3civnkz1DvvgP7yl0Ti0E2795KDXowYAe3yyzHkxhuBYcOKupW+Rx9NhD+W93I2BGwASh342R6uzHozYUDBMXvwIPTt26GiUahDh0AffjiQQLQiJDCDUCjh5UeOhBw1CvLSS6FddVXJz5Qz+Wel/tkQsAFIIdbS0mQn1c87dq67DnLMGOu+sKcH6k9/gr53L9TBgwmDcOxYgiWcPl08A8igLBpEdTVQUwPxkY8ksveXXAI5dizEOedY9gjxZ56Bes+hF/iwIQiuAYg1N0egaa2lTudZgew1AXaBjh8HOjtBnZ1QR4+Cjh0DkkaBurv7WYOoqgI0LeHVhw+HOPtsiGHDID72sYT80Y/afq+m5v6tx0qhac1BXkcQGAOQpPutsOLUHgtQTDLQ7yh67p/ZABuAkul+GfP4VsqlJgP9iIzkX+Xap11o2qygsQFfGwA30P2circgGcjen9kAGwAzXt+l4DDAhrl/iwyBkHJCENiA7wyA22L9fHAqGehmVCj5x2wg1Qf9RvlJ1w9kDH4zK9kqVE8nTwJ2LHzxEP13bfsQhSFEY6ylpY0NgFcov5RtBpa8kKWvWD11dbmP/jppAN5+29Xtk6yPxJYuPXBq+fIwGwCXUv7YkiVtbo/3cw6CP/0pmKO/q8u5hT/lgihMSrXFli6tZwPgdsrvMVBXF+j94L3WTt+2zWMNRWEAjbGWliY2AG4Y/EuX1kPKNsM36XhMDiILUKkDUr3UXj40Ap6cBfDCFF9RjRCwNQGumvsvudH8MVXoOQYQW7KkFUAjiOCXD508mciIBwT03nvebzelwqTrbbFFi8JsAJwc/ET1fhwUQQoDdL88K1EYQ4e2xZqbPZuD8kwIEGtubgNRxM8DY8iUKRAjR/qb/r/1FuLr1/vroYSIApjlxaPKPcEAYi0ticGf/TYcKTNlj9cHgQXo27b5r/2AMIhavcgEXG8AYk1NbVAqkiMOKxSneareM/PipTLmI0dAHR1+bb+EEVi0KMIGwC7aX+g9eB6X6eTJ0t4f6NU8h//aMwwpPcUEXGsAYosXD/b82RbZh7L+yiv+pf979yIA7RmGUp5hAq40ALGmpjZ4eHVfWTS5q8uXLEDt3RukZgxDCE8YAdcZgNjixa3Q9cB5/v41AZ2dA6vk/GQA3noraO2ZMAINDRE2AGYHf0JZ9RAiM+MaMFm99Zb/DEAqwRms9kzkBFxsBITLBr+v914XgyE33eSbNQH6K69Af/XVIDdnFMCE6qVLo8wAjAd/2HDwu3+vuG31fhowOZc5B6d9w251btIVg5+oNQjz/MXUU0eHPwb/nj2Zc//Bbd9wrKGhlQ1ANog8cX6f42o5eRJqzx7/xP4MgKg+tmBBE+cAUt5/4cLEXH86Zcr3ssuAyWL4cAy59VZPP8/pFSu4PTPlKIhmVf/4x+2BZgCxefOa+tf3Bzzrn0vuXxno0ftXe/Zwew6WUzMDYTcYgFAlLtozd24YQjSafhNtgKG/+SZCHp0N0PfsAbexIcJQqg3ARYFkAGLo0NaMLCmXOUuVYgAeu286cmRgRSO3o1EZjs2fX/GkoOM5gJ677moSUvrmOC8nMGTqVIgLLvDUPcfXrvVFEtP2vKBSzcPuvbdiiUFHGUBs3rwID/4SBtPWrZ67Z/Xuu9xwZjywps2MzZsXCUQOgIga3fJ2Xi/J9O67oHffhTj/fG8M/j17QJ2d3H5mZKXCEKK1UvkAxxhAz113NQkgAiH64w6RzI6K9HiE6w3rDT2qS1fC6cmdf9x+puvDPXffXZF8gCM5gJ65cyMQgtf5l9NQw4dj6KxZnrjX3gce4AYrjSJPGHbffe3+YwBScta/zJI6O0EeiKvVm29ye5VapsaJnwxAz9y5bcnz0sCf8j7xl192f8Ly5Ze5rUr/hHvmzm31jQHomTs3Al7nbx1DTCXWXOz9/bKJqYKoT44bHzAAosb+HVHZZfaOKa4vWE8dHdA3b3avAfjzn7n9rKgHWj1vAHp++MN6CBHJGe9kZ5K53lS9/uabrjUA+u7d3H7W1Id75sxp9bQBQPr7+wK8r9/qeurocGUyUO3eze1jbX19z5w5EU8agKT3D/dbtOzdUdkl1xdVr+/e7T7vn2Im3D5W1tvOAuxZCZg64SfxM6/8slhWhw+76n6osxPq0CFuH+vlcM/s2fXDHnhgpWcYQM/s2U2GMQ7LlsnU0QG1a5dr7icjMcntY7Vs694ZzdLBP2dOGERP8kyOA+jthTZ2rCtuJd7WBvT2cpvYg7MWfv7z4WUvv/x79zMApVq5vRxKuh0+7Iodd2r3btevT/ABIj1z5oRdnQPoueOOSP+7/NLpDMu2yWrXLsgKnxOgDh8eOPWH28cuOQyiRgCWbwaxjgGk9vlnZzXTf8f1ltb3J94qCH3nTm4fJ+qBSM8dd0RcyQD6vX8upFs1rresnk6cgDp0CPLCCys3+FPz1tw+dteHATQCaHcfA5ByJodpFfLAGzdW7tqbNnEDOJ0LsJgFWJMD0PV6bpvKgE6cAHV0QJx5prOx/6FDoBMnuAGch6WnB5XNAHq++90mbpMKGoDOzgQVdxiqAtdkAADCPd/+tmUswAoGMJPPfq8s1I4dwLXXOkv/d+xgxVcKmmYZCyiLAfTcfns9EskJYwT47b5O1lNHB9TBg84PftZ/ZeqJLGMB5TEAKRvzZjA5e+tYvb5jB+SoUYM7UL7vKLFecfa/8vWJJcLtFWMABb0/w9lcwKFDju1Zd5JtMHIiYgULKD0EEGJmhpXisqIlnTgxQM1tvFb8pZdY324pU2PQaQOQtDwRNsLuQv8OQTvj/zfeYEW7iAVUigHMpOQpJly6p1TRqK30XN+5MzH3z/p2Sxnuuf321koYgHo2vu6EnWsCOPZ3Ye6HKOKoAei+7bZ6Ss77c+m+0lYGkKT/rGdXleHu226rd8wACE0bz3bXxR7hxAlbjAAv/HExyjg1qGgDQLpez29wcfkbhDZssMf7s25d+0ah7lmzIrYbgHKoBsNBFmDxykB18CDH/25HKFQSCyhuJSARb/v1ggE4fhwqGoUcPdoa7799e+FVa4xKZwPDToQAEda0N2DlfD17f08g3F1fXzRDN80AumfOrOddf8FjAfobb4COH2eFegGJlYEr7WEAmsb032OIr1/vKibBsB2RYpOB5nMA+c78Y7iWBZRN/w8cYEV6CYlx2m4pAygltmC4wACcOJFI4JXq/cv4X0aFUOT5nOYYQOJMcoYXw4C2Nmif/nTJ/8vZf88h3D1jRqTmkUdMsQCzOYAw69WjLKCjAyoaLcn7U0cHK9CLCIVMs4CCDKB7xoyB7L+UyJgJYNkTsv7665Dh4my42r8/FVOyPr0nR6zLAUg5HlJm/45lD8mlzONnxP+sT6/J4e4ZM0wZAWGCARzgEMD7GDprFuTf/q25wf/66+h7kl/y7HG01zzyyISyGEDSigwMfn5Xu2fleFubee+/bRvrz/uyKaddKAQI98cYyZNIWPamrPbvT8T1hc4WPHYskTRk/XldNhUGFDIAvPffRzAzG1AMU2C4HmUaAKXq+60Kl54v9ddfz+v9QQT1zjusL/+UM0s2AN3Tp9ezAfUX6Pjxgem9HMk/fuGnrxDunjYtUioDCPPZ6/4r4y+8kJvwpYwD68k/pZQlGgAhOP73KQsomP1n+AcFxnEoT/wfYe350wDE161D6PrrMwf/a6/xun+fhgFFM4Dum2/m+N/H6E8GpiFfaMDwssWnvHkAYwYg5Xg+/cfHfeLDD6H27+9fGaj27wd9+CErxr9hQAQ5zgiQrJ2AsoDXXjP8meFLAzCzKAZAHP/7Huqddwbo/6uvskJ8be31cPe0aZGaRx9tNxcC8OYf/xuA48ehv/IKKyLgGGQAuqZOredscMDCAG5v34MSqwJNMAAp2fsHxQDkWRXI8JsFMH6LcMjgD0ezR2AjxbUpAAADfUlEQVQwggGjWYAIq4XB8B3CXV/7WsQMA+AQgMHwIwzeGZDBALqmTq3P+Ac+YYVllv0jh0Lj8zMAXc/8JyEyM8Qss8yyd2UDdp+ZA9C08RmWg0suufRTGe6aMiWSmwEQRTL2EqdOFmGZZZb9IedlAOkUQRQ4MZzruZ7rvVhvzAC6pkxJeP90i5EeQxiVXM/1XO+t+qwDQmS+BAGDwfAdwrlCAD4DkEsu/V+GuyZPjgw2AFKOZuPIYAQLA7MASnEIwGAEAWkrAtMZABsABiMIkHL8YAag62wAGIwgIG2KUAJA1w038OBnMIKDcCYDIEq8BTg1b8gll1z6uQyfnDgxXPf881HZbxF45xTLLAdGFsmcXyYDSCH7RCCWWWbZX3LiiLB2mbQOo9kqssxywOQMBsCWkWWWgySP758FAL8HgMEI5ExAKGEYKMzZUS65DFQZBgBx8ktfCkOIA4kQQYDSaALLLLPsXxnARYkcQHIGIPttACyzzLJ/ZQiRdSIQZ0lZZjlQswASsdhAhjD7RCCWWWbZt3Ld2rVRyclQBiO4kHUbN0ZBFO0/QZRLLrkMQtmeCAESiPKZ6VxyGaBSymj/OgD09a2HpkX4zDQuuQxISbR+gAFoWvsgK5H65LIiXM/1XO/d+ni8PZ0BRBEKDbYUqZ9T/8j1XM/1vqiv27gx2s8AksJKwzQhv2GF67neb/X9Y33gTMB4vBmaVp9hMbItCMsss+x9WanmfvuQbhZOjh/fljwogMFg+BFCrKxbv37WYAaQYgFCsAFgMPwKouZ0MWMlYN3Gje0gaua5Ui659GW5MpX8MwwBAODkF74QBtAGPiSEwfAT2us2bpyQ/ctBewGSFmIW64vB8A1yjmnN6Jf3HD4cXXDBBQcBfDXnaqKBmILruZ7r3VwvxNS6jRu3G431vJOIJ8eNq4cQrWxAGQyPQogJdRs3tueqzrsduG7z5pVQalb/LiIgc1cRyyyz7FY5WmjwF2QA/UzgmmvCIGqDEHx4KJdcur+M1m3adJEpgmCWSZy85powlKoHUWMavciMOVhmmeXKyko1123d2mR2XJs+Eahu06Zo3ZYtTdC0iyBle/8FueSSy8qXRM11W7aIYgZ/UQzAkBHE4/UAGnmtNcssV0SOgujhYge9JQYgyxCEIWUYROORWEAU4fQrg2EZomllFEQHyxn06fhvTaN26BlW/w8AAAAASUVORK5CYII=;fontStyle=1" vertex="1" parent="1">
          <mxGeometry x="410" y="80" width="64" height="70" as="geometry" />
        </mxCell>
        <mxCell id="Au2JnG_nZNp0HyXFQwV6-4" value="" style="image;aspect=fixed;html=1;points=[];align=center;fontSize=12;image=img/lib/azure2/identity/Users.svg;fillOpacity=100;" vertex="1" parent="1">
          <mxGeometry x="410" y="230" width="64" height="70" as="geometry" />
        </mxCell>
        <mxCell id="Au2JnG_nZNp0HyXFQwV6-5" style="edgeStyle=none;rounded=0;orthogonalLoop=1;jettySize=auto;html=1;sourcePerimeterSpacing=5;endArrow=classic;endFill=1;targetPerimeterSpacing=5;startArrow=none;startFill=0;strokeWidth=4;fillColor=#f8cecc;strokeColor=#b85450;" edge="1" parent="1" target="Au2JnG_nZNp0HyXFQwV6-4">
          <mxGeometry relative="1" as="geometry">
            <mxPoint x="442" y="155" as="sourcePoint" />
            <mxPoint x="605" y="125" as="targetPoint" />
          </mxGeometry>
        </mxCell>
        <mxCell id="Au2JnG_nZNp0HyXFQwV6-6" value="&lt;font style=&quot;font-size: 12px;&quot;&gt;&lt;b&gt;T 3 (Fraud)&amp;nbsp;&lt;/b&gt;&lt;/font&gt;" style="edgeLabel;html=1;align=center;verticalAlign=middle;resizable=0;points=[];" vertex="1" connectable="0" parent="Au2JnG_nZNp0HyXFQwV6-5">
          <mxGeometry x="-0.0423" relative="1" as="geometry">
            <mxPoint as="offset" />
          </mxGeometry>
        </mxCell>
        <mxCell id="Au2JnG_nZNp0HyXFQwV6-7" style="edgeStyle=none;rounded=0;orthogonalLoop=1;jettySize=auto;html=1;sourcePerimeterSpacing=5;endArrow=classic;endFill=1;targetPerimeterSpacing=5;startArrow=none;startFill=0;strokeWidth=4;fillColor=#f8cecc;strokeColor=#b85450;" edge="1" parent="1" source="Au2JnG_nZNp0HyXFQwV6-4" target="W0xqIHwrMlYqFA7ODgHm-13">
          <mxGeometry relative="1" as="geometry">
            <mxPoint x="452" y="165" as="sourcePoint" />
            <mxPoint x="452" y="235" as="targetPoint" />
          </mxGeometry>
        </mxCell>
        <mxCell id="Au2JnG_nZNp0HyXFQwV6-8" value="&lt;font style=&quot;font-size: 12px;&quot;&gt;&lt;b&gt;T 4&amp;nbsp;&lt;/b&gt;&lt;/font&gt;" style="edgeLabel;html=1;align=center;verticalAlign=middle;resizable=0;points=[];" vertex="1" connectable="0" parent="Au2JnG_nZNp0HyXFQwV6-7">
          <mxGeometry x="-0.0423" relative="1" as="geometry">
            <mxPoint as="offset" />
          </mxGeometry>
        </mxCell>
        <mxCell id="Au2JnG_nZNp0HyXFQwV6-9" style="edgeStyle=none;rounded=0;orthogonalLoop=1;jettySize=auto;html=1;sourcePerimeterSpacing=5;endArrow=classic;endFill=1;targetPerimeterSpacing=5;startArrow=none;startFill=0;strokeWidth=4;fillColor=#f8cecc;strokeColor=#b85450;" edge="1" parent="1" source="W0xqIHwrMlYqFA7ODgHm-13" target="W0xqIHwrMlYqFA7ODgHm-15">
          <mxGeometry relative="1" as="geometry">
            <mxPoint x="489" y="275" as="sourcePoint" />
            <mxPoint x="575" y="275" as="targetPoint" />
          </mxGeometry>
        </mxCell>
        <mxCell id="Au2JnG_nZNp0HyXFQwV6-10" value="&lt;font style=&quot;font-size: 12px;&quot;&gt;&lt;b&gt;T 5&amp;nbsp;&lt;/b&gt;&lt;/font&gt;" style="edgeLabel;html=1;align=center;verticalAlign=middle;resizable=0;points=[];" vertex="1" connectable="0" parent="Au2JnG_nZNp0HyXFQwV6-9">
          <mxGeometry x="-0.0423" relative="1" as="geometry">
            <mxPoint as="offset" />
          </mxGeometry>
        </mxCell>
        <mxCell id="Au2JnG_nZNp0HyXFQwV6-11" value="" style="image;aspect=fixed;html=1;points=[];align=center;fontSize=12;image=img/lib/azure2/identity/Users.svg;fillOpacity=100;" vertex="1" parent="1">
          <mxGeometry x="730" y="80" width="64" height="70" as="geometry" />
        </mxCell>
        <mxCell id="Au2JnG_nZNp0HyXFQwV6-12" style="edgeStyle=none;rounded=0;orthogonalLoop=1;jettySize=auto;html=1;sourcePerimeterSpacing=5;endArrow=classic;endFill=1;targetPerimeterSpacing=5;startArrow=none;startFill=0;strokeWidth=4;fillColor=#d5e8d4;strokeColor=#82b366;" edge="1" parent="1" source="W0xqIHwrMlYqFA7ODgHm-7" target="Au2JnG_nZNp0HyXFQwV6-11">
          <mxGeometry relative="1" as="geometry">
            <mxPoint x="602" y="180" as="sourcePoint" />
            <mxPoint x="575" y="125" as="targetPoint" />
          </mxGeometry>
        </mxCell>
        <mxCell id="Au2JnG_nZNp0HyXFQwV6-13" value="&lt;font style=&quot;font-size: 12px;&quot;&gt;&lt;b&gt;T 6&amp;nbsp;&lt;/b&gt;&lt;/font&gt;" style="edgeLabel;html=1;align=center;verticalAlign=middle;resizable=0;points=[];" vertex="1" connectable="0" parent="Au2JnG_nZNp0HyXFQwV6-12">
          <mxGeometry x="-0.0423" relative="1" as="geometry">
            <mxPoint as="offset" />
          </mxGeometry>
        </mxCell>
        <mxCell id="Au2JnG_nZNp0HyXFQwV6-15" style="edgeStyle=none;rounded=0;orthogonalLoop=1;jettySize=auto;html=1;sourcePerimeterSpacing=5;endArrow=classic;endFill=1;targetPerimeterSpacing=5;startArrow=none;startFill=0;strokeWidth=4;fillColor=#d5e8d4;strokeColor=#82b366;" edge="1" parent="1" source="Au2JnG_nZNp0HyXFQwV6-11" target="W0xqIHwrMlYqFA7ODgHm-15">
          <mxGeometry relative="1" as="geometry">
            <mxPoint x="649" y="125" as="sourcePoint" />
            <mxPoint x="735" y="125" as="targetPoint" />
          </mxGeometry>
        </mxCell>
        <mxCell id="Au2JnG_nZNp0HyXFQwV6-16" value="&lt;font style=&quot;font-size: 12px;&quot;&gt;&lt;b&gt;T 7&amp;nbsp;&lt;/b&gt;&lt;/font&gt;" style="edgeLabel;html=1;align=center;verticalAlign=middle;resizable=0;points=[];" vertex="1" connectable="0" parent="Au2JnG_nZNp0HyXFQwV6-15">
          <mxGeometry x="-0.0423" relative="1" as="geometry">
            <mxPoint as="offset" />
          </mxGeometry>
        </mxCell>
      </root>
    </mxGraphModel>
  </diagram>
</mxfile>
